<svg id="Layer_1" data-name="Layer 1" xmlns="http://www.w3.org/2000/svg" viewBox="0 0 278.35 388.31"><title>touch</title><g style="opacity:0.2"><path d="M394.36,273.4a32.73,32.73,0,0,0-45.23-30A32.67,32.67,0,0,0,301,222.43a32.56,32.56,0,0,0-39.73-13.79V193.7a64.23,64.23,0,1,0-69.55.08V254a37.77,37.77,0,0,0-61.23,43.33c3.72,8.14,50.3,109.46,87.39,153.56a10.6,10.6,0,0,0,8.11,3.77H335a10.6,10.6,0,0,0,8-3.64c6.93-8,41.77-48.65,47.1-67.5C397.5,357.1,394.74,282.8,394.36,273.4ZM175.6,135.62A51.07,51.07,0,1,1,261.28,177v-11a34.78,34.78,0,0,0-69.55,0v11A51,51,0,0,1,175.6,135.62ZM369.65,377.76c-2.78,9.83-23.81,37.22-39.56,55.71H231c-35.56-44.86-80.94-144.27-81.41-145.29-0.12-.27-0.26-0.53-0.4-0.79a16.59,16.59,0,1,1,29-16.23l15,26.71A10.57,10.57,0,0,0,212.91,292v-126a13.59,13.59,0,0,1,27.18,0v99.05a10.59,10.59,0,1,0,21.19,0V265c0-.28.08-0.54,0.08-0.82v-25a11.57,11.57,0,0,1,23.15,0v36.58a10.59,10.59,0,1,0,21.19,0v-25a11.57,11.57,0,1,1,23.14,0v29.61a10.59,10.59,0,1,0,21.19,0v-6.8a11.57,11.57,0,0,1,23.15,0c0,0.15,0,.29,0,0.44C374.09,296.21,375.24,358,369.65,377.76Z" transform="translate(-116.83 -66.35)"/></g><path d="M385.28,264.32a32.73,32.73,0,0,0-45.23-30,32.67,32.67,0,0,0-48.12-20.93,32.56,32.56,0,0,0-39.73-13.79V184.62a64.23,64.23,0,1,0-69.55.08v60.2a37.77,37.77,0,0,0-61.23,43.33c3.72,8.14,50.3,109.46,87.39,153.56a10.6,10.6,0,0,0,8.11,3.77h109a10.6,10.6,0,0,0,8-3.64c6.93-8,41.77-48.65,47.1-67.5C388.42,348,385.66,273.72,385.28,264.32ZM166.52,126.54A51.07,51.07,0,1,1,252.2,168V157a34.78,34.78,0,0,0-69.55,0v11A51,51,0,0,1,166.52,126.54ZM360.57,368.68c-2.78,9.83-23.81,37.22-39.56,55.71H221.94C186.38,379.53,141,280.12,140.53,279.09c-0.12-.27-0.26-0.53-0.4-0.79a16.59,16.59,0,1,1,29-16.23l15,26.71a10.57,10.57,0,0,0,19.78-5.83V157A13.59,13.59,0,0,1,231,157V256a10.59,10.59,0,0,0,21.19,0v-0.13c0-.28.08-0.54,0.08-0.82v-25a11.57,11.57,0,0,1,23.15,0v36.58a10.59,10.59,0,1,0,21.19,0v-25a11.57,11.57,0,1,1,23.14,0v29.61a10.59,10.59,0,1,0,21.19,0v-6.8a11.57,11.57,0,0,1,23.15,0c0,0.15,0,.29,0,0.44C365,287.13,366.16,348.88,360.57,368.68Z" transform="translate(-116.83 -66.35)" style="fill:#fff"/></svg>