<svg id="Layer_1" data-name="Layer 1" xmlns="http://www.w3.org/2000/svg" viewBox="0 0 270.98 359"><title>shake</title><path d="M201.63,195a23.74,23.74,0,0,1-21,14.06V351.73a8.85,8.85,0,0,0,8.85,8.85H296.53a8.85,8.85,0,0,0,8.85-8.85v-215a8.85,8.85,0,0,0-8.85-8.85H189.45a8.85,8.85,0,0,0-8.85,8.85v23l9,4A23.77,23.77,0,0,1,201.63,195Z" transform="translate(-120.51 -76.5)" style="fill:none"/><path d="M167.14,168.32a10.41,10.41,0,1,0-8.46,19l8.59,3.82V168.38Z" transform="translate(-120.51 -76.5)" style="fill:none"/><path d="M260.07,145.69A3.11,3.11,0,0,1,257,148.8H229a3.11,3.11,0,0,1-3.11-3.11h0A3.1,3.1,0,0,1,229,142.6H257a3.1,3.1,0,0,1,3.11,3.09h0Z" transform="translate(-120.51 -76.5)" style="fill:#fff"/><path d="M179.56,298.71a11.74,11.74,0,0,0-4.78,22.48l5.81,2.58v-25C180.25,298.79,179.91,298.71,179.56,298.71Z" transform="translate(-120.51 -76.5)" style="fill:none"/><path d="M197,242.83a10.41,10.41,0,0,0,4.24-19.93l-10.6-4.71V241l2.14,1A10.43,10.43,0,0,0,197,242.83Z" transform="translate(-120.51 -76.5)" style="fill:none"/><path d="M180.6,243.8v0.36c0.68,0.14,1.36.33,2,.54Z" transform="translate(-120.51 -76.5)" style="fill:#fff"/><path d="M196.57,329.76a11.77,11.77,0,0,0,9-4.14H190.65V302.54l-6.33-2.81a11.65,11.65,0,0,0-3.73-.91v25l11.21,5A11.75,11.75,0,0,0,196.57,329.76Z" transform="translate(-120.51 -76.5)" style="fill:none"/><path d="M176,254.35a11.77,11.77,0,0,0-8.74,3.92v15.65a11.58,11.58,0,0,0,4,2.91L180.6,281V255.31A11.69,11.69,0,0,0,176,254.35Z" transform="translate(-120.51 -76.5)" style="fill:none"/><path d="M190.65,285.17v-25.4l-9.88-4.39-0.17-.06V281l7.67,3.4A12.24,12.24,0,0,0,190.65,285.17Z" transform="translate(-120.51 -76.5)" style="fill:none"/><path d="M165.27,261.33a11.78,11.78,0,0,0,2,12.59V258.27A11.8,11.8,0,0,0,165.27,261.33Z" transform="translate(-120.51 -76.5)" style="fill:none"/><path d="M190.65,248.21c0.26,0.1.52,0.14,0.78,0.23l-0.78-.35v0.12Z" transform="translate(-120.51 -76.5)" style="fill:#fff"/><path d="M185.1,245.62a22.82,22.82,0,0,0-2.48-.92l7.47,3.32c0.18,0.08.38,0.11,0.56,0.18v-0.12Z" transform="translate(-120.51 -76.5)" style="fill:#fff"/><path d="M388.26,361l-10.4-14.34c0.65-8.82,3-39.85,5.12-60.8,2.37-23.16-4.06-35.43-4.81-36.75l-0.1-.17c-0.26-.44-26.49-44.38-37.69-71.83-6-14.63-14.4-19.89-21.67-21.35V136.69a22.21,22.21,0,0,0-22.18-22.18H189.45a22.2,22.2,0,0,0-22.18,22.18v17.83a23.73,23.73,0,0,0-14,45l13.2,5.86a23.64,23.64,0,0,0,.8,39.47v0.65a22.36,22.36,0,0,0-.36,41.06l0.37,0.16v5a22.38,22.38,0,0,0,0,37.44v22.57a22.2,22.2,0,0,0,22.18,22.17H219c8.6,13.51,18,23.75,28.12,30.43a48,48,0,0,0,15.83,7.1l7.67,14.38c0.8,1.67,4.44,8.26,12.13,9.51a14.78,14.78,0,0,0,2.34.18c5.9,0,12.23-3.31,13.39-4l84.34-45.44c3.3-1.49,7.32-5.43,8.46-12C392.44,367.28,388.69,361.63,388.26,361ZM180.6,195.77V136.69a8.85,8.85,0,0,1,8.85-8.85H296.53a8.85,8.85,0,0,1,8.85,8.85l0.28,19.94-0.28.08v2a30.31,30.31,0,0,0-10.06,6.88V160H190.65v43.57l-1-.45a23.54,23.54,0,0,0-9-2v-5.37h0Zm-10.11,24.87a10.42,10.42,0,0,1,9.52-6.19c0.2,0,.39.05,0.59,0.06a10.39,10.39,0,0,1,3.63.83l6.43,2.85,10.6,4.71a10.41,10.41,0,1,1-8.46,19l-2.14-1-10.06-4.47-4.83-2.14A10.42,10.42,0,0,1,170.48,220.63Zm-11.8-33.27a10.41,10.41,0,0,1,4.24-19.93,10.31,10.31,0,0,1,4.22.9l0.14,0.06v22.79Zm6.58,74a11.87,11.87,0,0,1,10.75-7,11.57,11.57,0,0,1,4.58,1l0.17,0.06,9.88,4.39,7.14,3.17a11.74,11.74,0,0,1-7.14,22.23,12.1,12.1,0,0,1-2.39-.77l-7.67-3.4-9.36-4.16A11.82,11.82,0,0,1,165.27,261.33Zm3.56,44.36a11.76,11.76,0,0,1,10.74-7c0.35,0,.69.08,1,0.11a11.55,11.55,0,0,1,3.73.91l6.33,2.81,10.69,4.75a11.75,11.75,0,0,1-9.53,21.48l-11.21-5-5.81-2.58A11.75,11.75,0,0,1,168.82,305.69Zm42.47,54.89H189.45a8.85,8.85,0,0,1-8.85-8.85v-16.3l6.89,3.06a22.1,22.1,0,0,0,9.08,1.94,22.45,22.45,0,0,0,20.49-13.32c0.22-.49.4-1,0.57-1.49h77.7V227.1c2.8,8.12,5.69,15.62,7.72,20.89,0.91,2.34,1.83,4.74,2.34,6.16v97.59a8.85,8.85,0,0,1-8.85,8.85H211.29Zm166.84,11.22a3.57,3.57,0,0,1-1,2.23l-85,45.8c-1.74,1-5.17,2.35-7,2.35h-0.21a4.13,4.13,0,0,1-2.22-2.06l-9.53-17.86-1.66-3.63-4,.1c-1.09-.1-15.4-2-32.27-24.81h61.39a22.2,22.2,0,0,0,22.18-22.17v-95.8c0.79-2.24-.14-4.73-3.23-12.74-4-10.37-11.43-29.68-14.51-44.3-2-9.39-1.24-16.74,2.19-21.85a16.38,16.38,0,0,1,5.54-5.11c2.58-1.35,6.48-2.91,9.8-2.19,3.71,1.84,6.91,6,9.54,12.4,11.34,27.82,36.45,70,38.5,73.48,0.44,0.89,5,10.71,3.18,28.89-2.52,24.71-5.32,63.23-5.34,63.63l-0.18,2.42,13.08,18A5.66,5.66,0,0,1,378.13,371.79Z" transform="translate(-120.51 -76.5)" style="fill:#fff"/><path d="M169.42,398.49a5.78,5.78,0,0,1-1.19-.13c-10.22-2.26-17.47-7-21.55-14.14-6.11-10.68-2.38-22.5-2.21-23A5.51,5.51,0,0,1,155,364.6c-0.06.19-2.35,7.89,1.33,14.22,2.48,4.27,7.3,7.23,14.31,8.78A5.51,5.51,0,0,1,169.42,398.49Z" transform="translate(-120.51 -76.5)" style="fill:#fff"/><path d="M165.47,419.24a5.52,5.52,0,0,1-1.19-.13c-18-4-30.71-12.22-37.75-24.51-10.54-18.43-4.08-38.89-3.8-39.75a5.51,5.51,0,0,1,10.48,3.39c-0.11.36-5.17,16.92,2.93,31,5.44,9.43,15.71,15.88,30.51,19.14A5.51,5.51,0,0,1,165.47,419.24Z" transform="translate(-120.51 -76.5)" style="fill:#fff"/><path d="M334,137.73a5.69,5.69,0,0,1-1.52-.21,5.52,5.52,0,0,1-3.8-6.78c0-.14,2.07-7.95-1.85-14.16-2.64-4.18-7.56-7-14.63-8.24a5.51,5.51,0,0,1,2-10.84c10.29,1.88,17.72,6.37,22.05,13.34,6.5,10.44,3.2,22.39,3.06,22.9A5.5,5.5,0,0,1,334,137.73Z" transform="translate(-120.51 -76.5)" style="fill:#fff"/><path d="M355.95,143.3a5.51,5.51,0,0,1-5.31-7c0.09-.32,4.56-17.09-4.06-30.85-5.78-9.23-16.27-15.29-31.19-18a5.51,5.51,0,1,1,2-10.84C335.51,79.91,348.51,87.68,356,99.7c11.21,18,5.51,38.72,5.25,39.59A5.49,5.49,0,0,1,355.95,143.3Z" transform="translate(-120.51 -76.5)" style="fill:#fff"/><path d="M243,353.82a10.65,10.65,0,1,1,10.65-10.64A10.66,10.66,0,0,1,243,353.82Zm0-17.3a6.65,6.65,0,1,0,6.66,6.66A6.66,6.66,0,0,0,243,336.52Z" transform="translate(-120.51 -76.5)" style="fill:#fff"/></svg>